<?xml version="1.0" encoding="iso-8859-1"?>
<!-- Uploaded to: SVG Repo, www.svgrepo.com, Generator: SVG Repo Mixer Tools -->
<svg version="1.1" id="Layer_1" xmlns="http://www.w3.org/2000/svg" xmlns:xlink="http://www.w3.org/1999/xlink" 
	 viewBox="0 0 512 512" xml:space="preserve">
<path style="fill:#834E00;" d="M416.082,511.53H96.912V159.585C96.912,71.449,168.361,0,256.497,0s159.585,71.449,159.585,159.585
	V511.53z"/>
<path style="fill:#693E00;" d="M256.497,0c-0.166,0-0.331,0.006-0.498,0.007V511.53h160.083V159.585
	C416.082,71.449,344.634,0,256.497,0z"/>
<rect x="135.157" y="209.817" style="fill:#5E3C16;" width="241.952" height="301.713"/>
<path style="fill:#F9B856;" d="M412.599,512c1.92,0,3.57-1.361,3.934-3.246c0.365-1.885-0.658-3.765-2.439-4.481l0,0l-77.122-30.941
	c-18.244-7.319-30.2-25-30.2-44.656v-63.677h-101.54v63.677c0,19.658-11.957,37.337-30.2,44.656l-77.122,30.941
	c-1.783,0.715-2.807,2.595-2.442,4.481c0.365,1.886,2.016,3.246,3.937,3.246H412.599z"/>
<g>
	<path style="fill:#F8A734;" d="M414.095,504.274l-77.122-30.941c-18.244-7.319-30.2-25-30.2-44.656v-63.677h-50.231V512h156.058
		c1.92,0,3.57-1.361,3.934-3.246C416.898,506.87,415.875,504.989,414.095,504.274z"/>
	<path style="fill:#F8A734;" d="M205.231,409.335c15.442,11.099,32.639,17.588,50.77,17.588s35.328-6.489,50.77-17.588v-44.336
		h-101.54V409.335z"/>
</g>
<path style="fill:#F8C478;" d="M212.3,156.896h-2.234c-6.461,11.087-24.562,31.422-74.903,52.918
	c-0.176,3.312-0.275,6.65-0.275,10.017c0,83.105,54.224,171.272,121.114,171.272s121.114-88.167,121.114-171.272
	c0-0.035-0.001-0.069-0.001-0.104C304.742,216.819,247.458,183.857,212.3,156.896z"/>
<path style="fill:#F9B856;" d="M377.113,219.728c-47.55-1.912-88.586-16.797-121.114-34.429v205.805H256
	c66.89,0,121.114-88.167,121.114-171.272C377.114,219.798,377.113,219.763,377.113,219.728z"/>
<path style="fill:#F8A734;" d="M310.36,216.054c-13.502,0-25.368,6.97-32.222,17.502c-6.69-3.752-14.259-5.759-22.139-5.759
	c-7.593,0-14.902,1.854-21.409,5.345c-6.893-10.302-18.631-17.088-31.957-17.088c-21.221,0-38.425,17.203-38.425,38.425
	c0,21.221,17.203,38.425,38.425,38.425c20.793,0,37.717-16.518,38.393-37.146c8.937-7.692,22.411-7.386,30.977,0.931
	c1.145,20.193,17.878,36.215,38.357,36.215c21.221,0,38.425-17.203,38.425-38.425S331.582,216.054,310.36,216.054z"/>
<path style="fill:#57565C;" d="M280.17,245.633c-2.865,0-5.729-1.092-7.915-3.278c-8.964-8.964-23.547-8.964-32.511,0
	c-4.372,4.371-11.457,4.371-15.831,0c-4.371-4.371-4.371-11.458,0-15.831c8.571-8.57,19.965-13.29,32.085-13.29
	c12.12,0,23.515,4.72,32.085,13.29c4.371,4.371,4.371,11.458,0,15.831C285.899,244.54,283.035,245.633,280.17,245.633z"/>
<g>
	<circle style="fill:#2D2E30;" cx="310.365" cy="239.915" r="38.426"/>
	<circle style="fill:#2D2E30;" cx="202.63" cy="239.915" r="38.426"/>
</g>
</svg>