<?xml version="1.0" encoding="utf-8"?>
<!-- Uploaded to: SVG Repo, www.svgrepo.com, Generator: SVG Repo Mixer Tools -->
<svg width="800px" height="800px" viewBox="-42.15 0 419.478 419.478" xmlns="http://www.w3.org/2000/svg"><defs><style>.a{fill:#79c6e0;}.b{fill:#7cc67a;}.c{fill:#211715;}.d{fill:#ffffff;}.e{fill:#f4b467;}.f{fill:#f4b3b3;}.g{fill:#bd957a;}</style></defs><path class="a" d="M198.684,19.048,212.8,77.622c.6,2.5,4.461,1.442,3.857-1.064L202.541,17.985c-.6-2.5-4.461-1.442-3.857,1.063Z"/><path class="a" d="M86.02,6.6l7.408,30.733c.6,2.5,4.461,1.442,3.857-1.064L89.877,5.54c-.6-2.5-4.461-1.442-3.857,1.064Z"/><path class="a" d="M35.628,29.13l3.434,14.248a2,2,0,1,0,3.857-1.063L39.485,28.066a2,2,0,1,0-3.857,1.064Z"/><path class="a" d="M206.925,181.416l5.491,22.778c.6,2.5,4.461,1.442,3.857-1.063l-5.491-22.778c-.6-2.5-4.461-1.442-3.857,1.063Z"/><path class="a" d="M288.029,196.793l5.813,24.114c.6,2.5,4.461,1.442,3.857-1.064l-5.813-24.113c-.6-2.5-4.461-1.443-3.857,1.063Z"/><path class="a" d="M275.566,145.089l9.414,39.053c.6,2.5,4.461,1.442,3.857-1.064l-9.414-39.052c-.6-2.5-4.461-1.443-3.857,1.063Z"/><path class="a" d="M311.381,76.974l5.107,21.185c.6,2.5,4.461,1.442,3.857-1.063l-5.107-21.185c-.6-2.5-4.461-1.443-3.857,1.063Z"/><path class="a" d="M319.6,111.2l11.66,48.371c.6,2.5,4.461,1.442,3.857-1.064l-11.659-48.37c-.6-2.5-4.462-1.442-3.858,1.063Z"/><path class="a" d="M22.842,136.948l-5.107-21.186c-.6-2.5-4.461-1.442-3.857,1.064l5.107,21.185c.6,2.5,4.461,1.442,3.857-1.063Z"/><path class="a" d="M14.62,102.725C11.094,88.1,7.45,73.5,3.921,58.874c-.6-2.5-4.461-1.443-3.857,1.063,3.529,14.626,7.173,29.224,10.7,43.852.6,2.5,4.461,1.442,3.857-1.064Z"/><path class="a" d="M251.541,45.418l16.413,68.089,4.635,19.23c.6,2.5,4.461,1.442,3.857-1.064q-8.2-34-16.391-68L255.4,44.355c-.6-2.5-4.461-1.442-3.857,1.063Z"/><path class="a" d="M136.894,2.491l9.788,40.6c.6,2.5,4.461,1.443,3.857-1.063l-9.787-40.6c-.6-2.5-4.462-1.442-3.858,1.063Z"/><path class="a" d="M56.506,131.631l8.537,35.417c.6,2.5,4.461,1.442,3.857-1.063l-8.537-35.418c-.6-2.5-4.461-1.442-3.857,1.064Z"/><path class="a" d="M305.466,366.022c.068.022.134.046.2.074l-.478-.2a2.379,2.379,0,0,1,.482.289l-.405-.313a2.808,2.808,0,0,1,.473.483l-.313-.405a3.27,3.27,0,0,1,.4.7l-.2-.478a3.577,3.577,0,0,1,.23.862l-.071-.532a3.566,3.566,0,0,1,0,.876l.072-.532-.007.053a2.244,2.244,0,0,0,.2,1.541,2,2,0,0,0,2.737.717l.4-.312a2,2,0,0,0,.515-.883,6.969,6.969,0,0,0,.107-1.078,6.774,6.774,0,0,0-.123-1.063,5.022,5.022,0,0,0-.554-1.494,5.78,5.78,0,0,0-.567-.8,2.975,2.975,0,0,0-.371-.4,4.537,4.537,0,0,0-1.667-.961,2,2,0,0,0-2.259,2.938,2.169,2.169,0,0,0,1.2.919Z"/><path class="a" d="M301.59,360.808c3.089,0,3.094-4.8,0-4.8s-3.094,4.8,0,4.8Z"/><path class="b" d="M275.458,409.474a12.943,12.943,0,0,1-4.558.338c-2.375-.418-4.856-2.306-4.18-5.646l-3.268-.6c-.15.9-.317,1.809-.536,2.714-2.367,2.027-6.276,1.3-7.8.548a4.63,4.63,0,0,1-2.841-3.588,5.161,5.161,0,0,1,2.588-4.741c1.509-5.282,1.187-8.687,3.254-13.342a12.725,12.725,0,0,1-2.89-1.3c-2.933-1.9-5.833-5.046-6.517-8.575a11.994,11.994,0,0,1,.652-7.076,10.091,10.091,0,0,1,5.382-5.957,16.08,16.08,0,0,1-.4-5.957,7.964,7.964,0,0,1,8.487-6.472,8.31,8.31,0,0,1,7.282,8.161,19.111,19.111,0,0,1,2.93.319,8.168,8.168,0,0,1,7.681-7.979,6.047,6.047,0,0,1,1.072.08c4.425.727,8.7,5.255,6.051,12.055,7.239,1.878,9.068,7.285,9.176,10.544a11.221,11.221,0,0,1-2.416,7.2c2.016,2.787,4.431,5.47,5.757,8.7a10.122,10.122,0,0,1,.292,7.7,14.266,14.266,0,0,1-2.838,3.935,24.271,24.271,0,0,1-5.249,4.613,9.23,9.23,0,0,1-6.716,1.307.813.813,0,0,1-.72-1.215,6.962,6.962,0,0,1,.956-1.957c-.289.158-1.477.792-1.477.792a6.075,6.075,0,0,1-3.443-.061l-1-.618c-.242.948-.52,1.9-.838,2.923A5.3,5.3,0,0,1,275.458,409.474Z"/><path class="c" d="M253.73,360.527a13.675,13.675,0,0,0-7.235,13.3c.561,6.232,5.324,11.281,11.106,13.264,2.44.837,3.488-3.025,1.063-3.857-4.1-1.407-7.859-5.22-8.191-9.672a9.677,9.677,0,0,1,5.276-9.583c2.314-1.128.288-4.579-2.019-3.454Z"/><path class="c" d="M288.473,364.237a10.632,10.632,0,0,1,4.385,2.945,9.18,9.18,0,0,1,1.8,3.365c.092.318.171.64.235.964.028.141.051.282.076.423.044.257-.03-.351,0,.041a10.187,10.187,0,0,1-.016,2.348,9.961,9.961,0,0,1-2.771,5.488c-1.8,1.847,1.03,4.678,2.828,2.829a13.6,13.6,0,0,0,3.5-13.156,13.944,13.944,0,0,0-8.979-9.1,2.016,2.016,0,0,0-2.46,1.4,2.043,2.043,0,0,0,1.4,2.461Z"/><path class="c" d="M292.056,390.283a6.716,6.716,0,0,0-8.015,3.5,7.831,7.831,0,0,0,2.349,9.2l.405-3.141a9.375,9.375,0,0,0-3.473,4.535,3,3,0,0,0,.574,3.274,4.6,4.6,0,0,0,2.771.952c4.355.46,8.228-2.21,11.147-5.149,3.022-3.044,5.792-6.338,5.449-10.9-.33-4.379-2.8-7.933-5.389-11.314a2.066,2.066,0,0,0-2.736-.718,2.014,2.014,0,0,0-.718,2.737c2.867,3.75,6.874,9,3.74,13.757a24.814,24.814,0,0,1-5.152,5.421,10.654,10.654,0,0,1-3.226,1.822,7.2,7.2,0,0,1-1.89.385,6.2,6.2,0,0,1-.818,0c-.266-.022-.722-.244-.537-.031l.515.882-.068-.381v1.063a4.837,4.837,0,0,1,1.83-2.876c.921-.683,1.508-2.251.4-3.141-1.3-1.047-2.355-2.834-1.639-4.534a2.73,2.73,0,0,1,3.414-1.476c2.432.857,3.478-3.006,1.063-3.857Z"/><path class="c" d="M255.946,385.189c-1.646,4.1-1.826,8.555-3.008,12.781l.919-1.2c-2.541,1.448-4.255,4.757-3.341,7.652a7.257,7.257,0,0,0,5.371,4.795,9.7,9.7,0,0,0,7.578-.864,3.172,3.172,0,0,0,1.56-2.343c.169-.794.3-1.595.434-2.4a53.012,53.012,0,0,1,1.072-5.544c.679-2.486-3.179-3.547-3.857-1.063-.784,2.869-1.01,5.847-1.686,8.74l.514-.882c-1.416,1.139-3.71.826-5.27.276q-.212-.079.046.029c-.1-.048-.2-.095-.3-.14a4.243,4.243,0,0,1-.767-.43,2.648,2.648,0,0,1-.778-1.053,2.469,2.469,0,0,1,.267-2.153,3.236,3.236,0,0,1,.922-1.022,3.321,3.321,0,0,0,1.387-2.109c.359-1.368.63-2.756.869-4.15a38.05,38.05,0,0,1,1.929-7.864,2.014,2.014,0,0,0-1.4-2.46,2.047,2.047,0,0,0-2.46,1.4Z"/><path class="c" d="M269.149,395.647a53.7,53.7,0,0,1-1.12,5.389l1.928-1.468a5.157,5.157,0,0,0-3.685,1.848,9.08,9.08,0,0,0-1.16,1.536,4.555,4.555,0,0,0-.5,2.3,6.5,6.5,0,0,0,3.841,5.85,10.947,10.947,0,0,0,6.418.547,8.3,8.3,0,0,0,5.7-3.335,14.2,14.2,0,0,0,1.534-4.367,44.352,44.352,0,0,0,.973-5.239,2.01,2.01,0,0,0-2-2,2.051,2.051,0,0,0-2,2,40.96,40.96,0,0,1-1.5,6.56,3.936,3.936,0,0,0-.121.392c-.077.416.122-.212,0,.054-.073.153-.16.3-.242.443-.04.071-.091.138-.137.206.215-.316.074-.088.006-.022-.135.133-.266.268-.4.4-.163.152.066-.042.087-.057-.087.065-.177.127-.269.186q-.207.135-.425.252c-.078.042-.567.268-.365.184a3.781,3.781,0,0,0-.395.135,9.668,9.668,0,0,1-1.074.277c-.195.039-.391.072-.587.1.4-.061-.071,0-.221.015a14.486,14.486,0,0,1-2.1.018c-.092,0-.184-.013-.276-.022.046,0,.356.1.155.01a4.272,4.272,0,0,0-.486-.126c-.129-.04-.584-.219-.236-.065a5.778,5.778,0,0,1-.532-.271,5.193,5.193,0,0,1-.5-.326c.273.2-.022-.036-.117-.129s-.393-.449-.294-.313c.132.184-.032-.057-.043-.08-.053-.1-.115-.2-.174-.3-.187-.31-.045-.1-.013-.009-.04-.114-.078-.23-.11-.347-.024-.09-.043-.182-.062-.273-.061-.3-.016.428-.009-.143,0-.154,0-.581,0-.575,0,.071-.064.106-.093.165a3.335,3.335,0,0,1,.23-.361c.05-.077.1-.153.159-.227-.129.173-.021.024.054-.057.185-.2.369-.4.568-.583,0,0,.26-.2.111-.095-.127.09.176-.1.2-.116.277-.172-.247.115.032-.021.223-.109-.382-.009.076-.013a2.036,2.036,0,0,0,1.929-1.468,59.261,59.261,0,0,0,1.263-6.453,2.011,2.011,0,0,0-2-2,2.051,2.051,0,0,0-2,2Z"/><path class="c" d="M280.164,405.742a3.318,3.318,0,0,0,1.164.4,11.347,11.347,0,0,0,1.56.151,5.782,5.782,0,0,0,2.739-.492,2,2,0,0,0-.478-3.656,2.187,2.187,0,0,0-1.541.2l-.057.027.478-.2a2.321,2.321,0,0,1-.57.135l.532-.071a7.813,7.813,0,0,1-2.021-.007l.532.071a2.867,2.867,0,0,1-.678-.157l.478.2a.94.94,0,0,1-.119-.059,2.066,2.066,0,0,0-1.541-.2,2,2,0,0,0-1.4,2.46,2.1,2.1,0,0,0,.919,1.2Z"/><path class="c" d="M256.676,361.722c-.438-2.15-.905-4.666.178-6.708a6.162,6.162,0,0,1,4.091-3.1c3.686-.846,7.162,2.443,7.173,6.065a2.038,2.038,0,0,0,2,2,17.56,17.56,0,0,1,2.4.248,2.03,2.03,0,0,0,2.531-1.929c-.014-3.849,4.034-7,7.71-5.578,3.814,1.481,4.485,5.464,3.251,8.977-.855,2.433,3.008,3.48,3.858,1.063a11.344,11.344,0,0,0-.4-9.166,10.313,10.313,0,0,0-5.914-4.823c-6.1-1.992-12.53,3.292-12.506,9.527l2.532-1.929a25.812,25.812,0,0,0-3.462-.39l2,2a10.232,10.232,0,0,0-11.9-9.993,10.1,10.1,0,0,0-6.651,4.707c-1.839,3.093-1.436,6.72-.75,10.089.513,2.52,4.37,1.454,3.857-1.064Z"/><path class="c" d="M257.535,375.234c4.289,2.582,9.521,3,14.421,2.96,4.691-.035,9.651-.842,13.58-3.566,2.1-1.457.1-4.926-2.019-3.454-3.383,2.346-7.521,2.99-11.561,3.02-4.2.032-8.721-.2-12.4-2.414-2.211-1.331-4.224,2.126-2.019,3.454Z"/><path class="c" d="M283.371,357.7c.214,1.379-.494,4.379-3.034,4.272-3.3-.5-2.943-4.2-1.578-5.766C279.877,354.924,282.642,354.727,283.371,357.7Z"/><path class="c" d="M264.635,356.557c.572,1.273.686,4.353-1.791,4.924-3.318.393-3.953-3.268-3.053-5.139C260.529,354.81,263.143,353.886,264.635,356.557Z"/><path class="d" d="M192.453,157.2a97.032,97.032,0,0,1,21.519,3.035c4.841,1.159,10.067,3.228,13.477,7.229.857-2.133,1.7-4.381,3.326-6.008,2.444-2.448,5.179-4.318,9.846-3.855-13.812-13.759-28.763-29.059-40.917-43.967-22.265-2.328-66.043-21.142-77.623-31.172a165.428,165.428,0,0,1-62.72-16.334,50.639,50.639,0,0,1,3.8,30.806A55.208,55.208,0,0,1,85.81,108.783c6.568,5.753,14.529,15.12,17.92,22.761a13.56,13.56,0,0,1,5.723,1.873Z"/><path class="e" d="M184.509,389.453c-.218-1.668-.59-11.559-.515-12.083.047-5.03-.193-8.755.09-13.581.112-1.894.2-4.788-.38-5.784-.955-1.646-1.385-2.077-3.288-2.121s-10.192.728-12.094.788c-6.593.209-14.308.014-16.955.264-1.039.1-1.8,1.249-2.055,2.374l-1.047-.046c-5.828.337-10.81.729-14.713.881-3.742.145-7.878.072-13.67.326-1.028.045-1.571,1.259-1.487,2.284.181,2.213.834,5.513,1.414,10.626.249,2.2.706,5.066-.707,7.057-3.529,4.092-8.2,7.637-14.168,13.574-2.309,2.3-4.28,5.375-4.006,8.621a7.986,7.986,0,0,0,3.5,5.662,14.313,14.313,0,0,0,6.422,2.261,24.283,24.283,0,0,0,15.112-3.1,20.039,20.039,0,0,0,3.7-2.888c2.839-2.688,4.844-5.192,8.732-6.381l1.954.452c-.421.416-.851.84-1.291,1.279-2.415,2.4-4.477,5.621-4.19,9.016a8.355,8.355,0,0,0,3.665,5.922,14.965,14.965,0,0,0,6.716,2.364,25.39,25.39,0,0,0,15.806-3.243,20.9,20.9,0,0,0,3.87-3.02c2.968-2.812,5.066-5.431,9.132-6.674a26.705,26.705,0,0,0,8.473-4.608C185.183,397.2,184.635,392.793,184.509,389.453Z"/><path class="f" d="M111.042,148.6c-2.219,2.371-4.117,4.71-4.548,6.026a5.427,5.427,0,0,0-.27,3.094,4.077,4.077,0,0,0,3.321,2.707l1.188.345a34.456,34.456,0,0,0-10.674,11.955c-4.867,8.807-11.907,21.421-10.04,31.361.777,4.134-.949,8.442-.056,12.552s3.259,8.088,7.008,10c4.886,2.486,10.149,1.472,14.641-1.627.8,10.278-2.574,20.72-4.89,30.93a4.274,4.274,0,0,0,.012,2.793,4.113,4.113,0,0,0,1.59,1.521c10.346,6.694,23.033,9.061,35.351,8.707s22.572-1.036,33.352-5.656l1.41-2.935c4.683,1.467,10.872,3.16,13.142,4.442,3.595-.326,2.522-7.111,2.522-19.768-.147-7.48-.587-30.287-1.174-34.54-1.368-9.925-2.307-18.668-5.72-28.088a51.7,51.7,0,0,0-11.384-18.45q-.418-.432-.854-.842l.637-.322a5.522,5.522,0,0,0,4.6.376,4.937,4.937,0,0,0,3.037-3.24,5.94,5.94,0,0,0-.845-4.533,17.534,17.534,0,0,0-3.2-3.636q-3.227-3.016-6.648-5.844c-1.578-1.3-3.1-6.094-3.03-8.055l-50.747,3.52A68.358,68.358,0,0,0,111.042,148.6Z"/><path class="d" d="M120.807,356.242l-.414-2.76a721.753,721.753,0,0,1-8.334-90.1s0-.374-.006-.946c9.586,5.034,20.747,6.842,31.622,6.529,12.317-.354,22.572-1.036,33.352-5.656l1.868-1.128c.446,7.239.925,15.029.925,15.029,1.24,26.19,1.77,54.64,1.72,78.69,0,0,0,.031,0,.092a6.354,6.354,0,0,0-1.125-.106c-1.9-.044-10.192.728-12.094.788-6.593.209-14.308.014-16.955.264-1.006.094-1.76,1.177-2.037,2.266l-1.065.062c-5.828.337-10.81.729-14.712.881-3.4.132-7.125.083-12.122.265Z"/><path class="d" d="M180.2,260.883l-.746-.228-2.322,2.652a60.191,60.191,0,0,1-10.167,3.319,36,36,0,0,0,1.59,6.33,11.686,11.686,0,0,0,6.959,5.708c.778-.119,1.7-.255,1.7-.255,1.4-.207,4.536-2.225,5.5-3.26,3.567-3.812,5.048-6.687,8.647-10.51C189.167,263.532,184.368,262.153,180.2,260.883Z"/><path class="d" d="M126.823,104.5c3.994-2.027,7.939-4.133,11.5-5.759-1.185,2.03-3.665,6.414-2.469,6.4,4.452.5,10.815-1.924,15.656-6.074.681,4.5,3.761,9.737,7.891,13.771.273.27.555.533.837.8q.5.456,1.012.879c1.163,1.16,4.507,4.069,5.874,5.159l.558.444.35-.166a6.04,6.04,0,0,1,8.475,4.087,8.291,8.291,0,0,1-.618,5.026,13.172,13.172,0,0,1-11.562,7.895c-2.34,3.327-9.245,8.183-14.049,9.878a28.8,28.8,0,0,1-13.348,1.629c-7.01-.572-12.67-3.11-17.117-8.542-3.67-4.485-5.3-9.656-5.761-15.527-.338-4.277-.434-10.673.317-14.386A94.881,94.881,0,0,0,126.823,104.5Z"/><path class="g" d="M116.136,94.069a32.993,32.993,0,0,0-1.67,6.383,53.984,53.984,0,0,0-.336,8.98l.032.645c7.711-2.511,16.76-7.958,24.163-11.337-1.185,2.03-3.665,6.414-2.469,6.4,4.452.5,10.815-1.924,15.656-6.074.681,4.5,3.761,9.737,7.891,13.771.273.27.555.533.837.8q.5.456,1.012.879c1.163,1.16,4.507,4.069,5.874,5.159l.557.444.351-.166a6.131,6.131,0,0,1,5.216.015,6.065,6.065,0,0,1,2.123,1.722c2.752-4.409,3.637-10.19,3.891-13.773a31.5,31.5,0,0,0-2.76-15.671,29.991,29.991,0,0,0-3.541-5.721c-.557-.71-1.409-1.753-2-2.395a37.532,37.532,0,0,0-5.038-4.245,32.356,32.356,0,0,0-4.517-2.684,34.145,34.145,0,0,0-11.078-3.152,32.452,32.452,0,0,0-19.807,3.685A31.2,31.2,0,0,0,116.136,94.069Z"/><path class="d" d="M127.249,158.279a8.3,8.3,0,0,1-1.482-2.99,15.454,15.454,0,0,0,5.194-7.482l.09-.4a29.115,29.115,0,0,0,5.881,1.056,28.8,28.8,0,0,0,13.348-1.629,22.657,22.657,0,0,0,2.161-.9l.439,1.37a20.293,20.293,0,0,0,5.29,7.16,33.311,33.311,0,0,1-9.336,7.066,21.525,21.525,0,0,1-13.6,1.5A13.993,13.993,0,0,1,127.249,158.279Z"/><path class="g" d="M190.155,127.816c1.363-3.454,2.976-6.73,2.819-10.554a14.947,14.947,0,0,0-3.99-9.35,15.648,15.648,0,0,0-8.16-4.55c-.482-.081-1-.171-1.55-.231a34.535,34.535,0,0,1-.01,4.782c-.241,3.392-1.046,8.755-3.467,13.058l-.413.734a6,6,0,0,1,1.125,2.331,8.291,8.291,0,0,1-.618,5.026,3.249,3.249,0,0,1-.151.322c1.189,5.105,6.574,9.334,8.814,10.418a15.8,15.8,0,0,0,6.18,1.69,16.544,16.544,0,0,1-.66-13.47Z"/><path class="c" d="M152.193,368.473c10.084.5,20.623.566,30.479-1.894,2.5-.623,1.439-4.482-1.063-3.857-9.507,2.373-19.692,2.229-29.416,1.751-2.573-.126-2.566,3.874,0,4Z"/><path class="c" d="M120.676,371.278c9.484,1.037,19.252.082,28.635-1.434a2.015,2.015,0,0,0,1.4-2.46,2.048,2.048,0,0,0-2.46-1.4c-9.032,1.459-18.449,2.288-27.572,1.291a2.012,2.012,0,0,0-2,2,2.046,2.046,0,0,0,2,2Z"/><path class="c" d="M127.178,156.705a17.412,17.412,0,0,0,5.712-8.367,2.018,2.018,0,0,0-1.4-2.46,2.044,2.044,0,0,0-2.46,1.4c-.115.362-.242.721-.383,1.073-.049.124-.2.4.041-.09-.035.072-.064.147-.1.22q-.111.246-.231.487a15.52,15.52,0,0,1-1.16,1.961c-.1.147-.21.292-.316.438-.156.215.038-.056.094-.119-.066.074-.125.157-.188.234q-.362.442-.754.858a15.9,15.9,0,0,1-1.69,1.54,2,2,0,0,0-.585,1.414,2,2,0,0,0,2,2,2.325,2.325,0,0,0,1.414-.586Z"/><path class="c" d="M151.153,148.311a21.847,21.847,0,0,0,5.6,7.563,2,2,0,0,0,2.828-2.829,21.151,21.151,0,0,1-1.589-1.537q-.367-.395-.712-.808c-.115-.138-.227-.278-.34-.418-.261-.325.2.273.057.074-.059-.08-.12-.159-.179-.24a20.082,20.082,0,0,1-2.211-3.824,2.007,2.007,0,0,0-1.195-.919,2.043,2.043,0,0,0-1.541.2,2.017,2.017,0,0,0-.919,1.2,2.322,2.322,0,0,0,.2,1.541Z"/><path class="c" d="M169.044,121.676a4.106,4.106,0,0,1,4.854,1.364c1.2,1.7.833,3.963-.1,5.8a11.288,11.288,0,0,1-9.227,6.114,2.044,2.044,0,0,0-2,2,2.018,2.018,0,0,0,2,2,15.424,15.424,0,0,0,11.582-6.32c2.919-3.959,3.777-10.034-.453-13.435a8.228,8.228,0,0,0-8.678-.972,2.014,2.014,0,0,0-.718,2.736,2.051,2.051,0,0,0,2.737.718Z"/><path class="c" d="M177.524,121.98c4.162-7.587,4.909-17.633,2.551-25.885A33.682,33.682,0,0,0,163.2,75.865a36.862,36.862,0,0,0-27.155-2.627,34.543,34.543,0,0,0-17.114,11.77c-5.456,7.05-7.206,15.665-6.8,24.424.118,2.564,4.119,2.578,4,0-.318-6.928.644-13.74,4.371-19.719a30.39,30.39,0,0,1,13.437-11.458c15.06-6.691,34.5.416,41.118,15.607a30.019,30.019,0,0,1,2.2,14.2,29.3,29.3,0,0,1-3.183,11.9c-1.239,2.258,2.214,4.279,3.454,2.019Z"/><path class="c" d="M168.564,160.8c8.075,4.985,13.636,13.573,16.8,22.378a87.779,87.779,0,0,1,3.777,14.948c.736,4.315,1.429,8.69,1.868,13.046.566,5.62.567,11.331.718,16.972.168,6.247.339,12.5.386,18.744.033,4.34.359,8.731.056,13.066a8.733,8.733,0,0,1-.19,1.557c-.059.281-.141.552-.217.829-.142.511.036-.088-.118.266a1.2,1.2,0,0,1-.138.227c-.107.146.311-.186.039-.063-.022.01-.384.271-.068.076s-.082-.01-.1.029c.12-.311.387-.069.141-.072-.084,0-.606.04.027.018-.143,0-.862-.043-.357.028a2.067,2.067,0,0,0-2.46,1.4,2.014,2.014,0,0,0,1.4,2.46c6.989.977,6.178-8.1,6.1-12.628-.121-7.233-.219-14.464-.394-21.7-.159-6.586-.255-13.192-.709-19.766-.263-3.8-.914-7.584-1.466-11.347a107.168,107.168,0,0,0-3.333-15.82c-3.379-11.064-9.693-21.9-19.739-28.1-2.2-1.356-4.208,2.1-2.019,3.453Z"/><path class="c" d="M176.018,261.58A66.692,66.692,0,0,1,156.11,266.3a121.134,121.134,0,0,1-21.382.42,58.184,58.184,0,0,1-19.466-4.928,48.973,48.973,0,0,1-4.487-2.369,9.517,9.517,0,0,1-1.944-1.244c-.6-.615-.25-1.4-.076-2.164.839-3.687,1.806-7.343,2.654-11.028,1.926-8.368,3.238-16.985,1.391-25.492-.546-2.515-4.4-1.451-3.857,1.063,1.7,7.855.341,15.885-1.445,23.6-.9,3.885-2.03,7.739-2.792,11.655-.374,1.925-.221,3.8,1.3,5.2a22.223,22.223,0,0,0,4.595,2.915c13.375,7.2,28.569,7.67,43.375,6.557a75.374,75.374,0,0,0,24.065-5.448,2.011,2.011,0,0,0,.717-2.736,2.053,2.053,0,0,0-2.736-.717Z"/><path class="c" d="M110.6,223.281a13.91,13.91,0,0,1-8.6,2.735,10.26,10.26,0,0,1-7.19-3.639,13.455,13.455,0,0,1-3.09-7.5c-.219-3.311.765-6.585.425-9.9A29.025,29.025,0,0,1,92,197.046a42.618,42.618,0,0,1,2.372-8.34A115.411,115.411,0,0,1,102,173.37a32.675,32.675,0,0,1,13.466-13.085c2.288-1.181.268-4.634-2.018-3.454A36.166,36.166,0,0,0,99.612,169.57a104.415,104.415,0,0,0-8.8,17.315,43.253,43.253,0,0,0-2.728,9.472,28.258,28.258,0,0,0-.368,4.208c0,1.649.343,3.228.476,4.859.3,3.641-.846,7.225-.309,10.872a17.892,17.892,0,0,0,3.986,8.77,14.247,14.247,0,0,0,9.53,4.9,17.273,17.273,0,0,0,11.224-3.233c2.121-1.435.121-4.9-2.018-3.454Z"/><path class="c" d="M123.679,155.021c1.223,7.363,9.718,10.567,16.3,10.5a23.787,23.787,0,0,0,11.359-3.038,41.051,41.051,0,0,0,9.162-7.551c1.79-1.852-1.035-4.684-2.828-2.828-4.632,4.792-9.877,9.035-16.823,9.391-5.118.262-12.332-1.608-13.317-7.539a2.015,2.015,0,0,0-2.46-1.4,2.048,2.048,0,0,0-1.4,2.46Z"/><path class="c" d="M135.684,179.763l0,53.745,0,15.249c0,2.574,4,2.578,4,0l0-53.746,0-15.248c0-2.574-4-2.579-4,0Z"/><path class="c" d="M166.826,273.965a13.905,13.905,0,0,0,9.419,6.987,2,2,0,1,0,1.063-3.857,11.716,11.716,0,0,1-1.251-.31q-.292-.092-.581-.2l-.287-.11c-.412-.156.425.2.026.01a12.886,12.886,0,0,1-2.174-1.264l-.1-.073q-.18-.135.161.126a1.32,1.32,0,0,0-.239-.193c-.158-.13-.312-.265-.463-.4a12.06,12.06,0,0,1-.9-.921c-.112-.128-.25-.386-.393-.472q.261.342.126.162l-.073-.1c-.061-.083-.12-.166-.178-.25a11.8,11.8,0,0,1-.7-1.155,2.016,2.016,0,0,0-2.736-.717,2.043,2.043,0,0,0-.718,2.736Z"/><path class="c" d="M189.767,263.3c-2.576,2.769-4.661,5.9-7,8.671a23.585,23.585,0,0,1-1.772,1.966c-.191.181-.4.349-.6.512.356-.28-.057.035-.136.092-.148.105-.3.209-.447.31A18.984,18.984,0,0,1,177.88,276c-.154.079-.312.15-.467.228-.38.191.307-.09-.1.044a5.329,5.329,0,0,1-.734.206,2.015,2.015,0,0,0-1.4,2.46,2.045,2.045,0,0,0,2.46,1.4,11.293,11.293,0,0,0,3.952-1.876,17.2,17.2,0,0,0,3.675-3.278c2.621-3.04,4.629-6.15,7.329-9.053a2,2,0,0,0-2.828-2.828Z"/><path class="c" d="M110.059,263.38q1.08,35.2,5.533,70.161,1.316,10.254,2.873,20.473a2.014,2.014,0,0,0,2.46,1.4,2.05,2.05,0,0,0,1.4-2.46c-3.5-23.082-6.075-46.288-7.4-69.6q-.567-9.979-.864-19.972c-.078-2.568-4.079-2.579-4,0Z"/><path class="c" d="M177.82,277.208c.975,20.677,1.493,41.378,1.666,62.077q.069,8.307.054,16.613c0,2.574,4,2.577,4,0q.059-30.489-1-60.969-.308-8.862-.723-17.721c-.121-2.563-4.122-2.578-4,0Z"/><path class="c" d="M140.819,292.229q1.424,26.106,4.772,52.056.952,7.359,2.051,14.7a2.013,2.013,0,0,0,2.46,1.4,2.05,2.05,0,0,0,1.4-2.46q-3.815-25.469-5.742-51.17-.544-7.255-.938-14.521c-.14-2.56-4.141-2.576-4,0Z"/><path class="c" d="M142.857,290.305l-4-1.2a2,2,0,0,0-2.461,1.4,2.027,2.027,0,0,0,.2,1.541,2.126,2.126,0,0,0,1.195.919l4,1.2a2,2,0,0,0,2.461-1.4,2.027,2.027,0,0,0-.2-1.541,2.126,2.126,0,0,0-1.195-.919Z"/><path class="c" d="M117.767,139.665a54.668,54.668,0,0,0-7.475,6.824,53.491,53.491,0,0,0-3.758,4.3,10.562,10.562,0,0,0-2.246,4.328,5.941,5.941,0,0,0,.8,4.772,6.509,6.509,0,0,0,3.926,2.468c2.509.549,3.581-3.306,1.063-3.857-.825-.18-1.8-.533-1.969-1.462a5.15,5.15,0,0,1,.348-1.975c.055-.264-.237.41.037-.052.069-.116.129-.237.2-.354.185-.317.391-.621.6-.921.137-.195.279-.387.424-.576-.225.295.116-.145.161-.2.654-.814,1.343-1.6,2.048-2.37C113.38,149,114.9,147.477,116.47,146c.67-.629,1.349-1.249,2.044-1.849.281-.243.568-.479.853-.717.1-.083.537-.405.064-.057.118-.087.235-.177.355-.262a2.055,2.055,0,0,0,.718-2.736,2.017,2.017,0,0,0-2.737-.718Z"/><path class="c" d="M148.265,357.264c-6.867.4-13.709.9-20.589,1-1.8.026-3.607.059-5.41.117-1.928.062-4.022-.13-5.187,1.732-1.438,2.3-.291,5.782.073,8.27q.429,2.928.758,5.87c.2,1.8.464,3.738-.626,5.3-1.477,2.115,1.989,4.117,3.454,2.019a9.225,9.225,0,0,0,1.3-6.026c-.16-2.242-.5-4.483-.81-6.708-.229-1.64-.506-3.282-.71-4.922-.069-.554-.027-1.131-.069-1.659q-.628.253-.074.195c.32-.013.641-.026.961-.037q.916-.035,1.834-.059c3.907-.11,7.819-.079,11.724-.268,4.46-.216,8.914-.562,13.372-.822,2.558-.149,2.575-4.15,0-4Z"/><path class="d" d="M85.24,205.713c1.05-3.146,2.646-4.5,5.226-3.938a3.982,3.982,0,0,1,2.945,4.959c-.913,3.1-.365,3.925,0,4.618a4.448,4.448,0,0,0,3.875,2.338,4.944,4.944,0,0,0,3.724-2.208c1.7-2.805,1.766-4.39,3.665-5.546a3.552,3.552,0,0,1,3.546.273,3.267,3.267,0,0,1,1.628,3.693c-.52,1.7-3.99,9.986-9.068,11.668s-9.872.229-13.535-3.617a11.4,11.4,0,0,1-2.488-6.54A16.768,16.768,0,0,1,85.24,205.713Z"/><path class="c" d="M87.168,206.245c.3-.873.786-2.145,1.641-2.5a2.168,2.168,0,0,1,2.345.677c.706.948.278,1.822.054,2.834a7.805,7.805,0,0,0-.105,3.756,6.6,6.6,0,0,0,5.191,4.6c3.379.486,5.845-1.826,7.26-4.6.509-1,.9-2.424,1.823-3.142a1.754,1.754,0,0,1,2.525.853.906.906,0,0,1,.019.644c-.08.265-.179.525-.278.783a23.11,23.11,0,0,1-1.014,2.222,19.52,19.52,0,0,1-4.375,6.044,8.982,8.982,0,0,1-7.529,1.657c-3.141-.663-6.307-2.8-7.377-5.924a13.366,13.366,0,0,1-.18-7.908c.79-2.457-3.071-3.508-3.857-1.064a17.2,17.2,0,0,0-.084,9.178,13.174,13.174,0,0,0,7.185,8.422,14.269,14.269,0,0,0,11.411.524c2.985-1.2,5.161-3.778,6.848-6.428a25.827,25.827,0,0,0,3.078-6.351c1.061-3.625-2.235-7.081-5.853-6.942a5.694,5.694,0,0,0-4.438,2.782c-.862,1.3-1.362,3.1-2.247,4.222a2.439,2.439,0,0,1-3.279.68,3.077,3.077,0,0,1-.85-1.03c-.046-.078-.231-.488-.124-.239.117.273-.014-.057-.019-.128-.022-.321.013.54-.023-.137a8.778,8.778,0,0,1,.424-2.468,6.673,6.673,0,0,0,.076-2.834,5.892,5.892,0,0,0-3.161-4.128,6.08,6.08,0,0,0-5.56.044,8.444,8.444,0,0,0-3.384,4.833C82.461,207.617,86.324,208.664,87.168,206.245Z"/><path class="c" d="M172.424,260.267c2.935,1.519,6.319,2.3,9.464,3.248,1.791.541,3.583,1.082,5.354,1.683.765.259,1.518.544,2.272.83.509.192-.366-.168.1.042.131.059.262.116.391.178.256.122.507.253.75.4,2.212,1.328,4.226-2.129,2.019-3.454a21.311,21.311,0,0,0-3.995-1.689c-1.778-.618-3.581-1.165-5.383-1.711s-3.589-1.075-5.373-1.649c-.77-.248-1.539-.5-2.3-.784-.289-.107-.576-.22-.862-.335.516.207-.274-.135-.423-.212a2.045,2.045,0,0,0-2.736.717,2.022,2.022,0,0,0,.717,2.737Z"/><path class="c" d="M172.9,201.485c.723,8.163,2.1,16.323,1.538,24.541-.291,4.218-1.1,8.377-1.469,12.59-.338,3.878-.569,7.759-1.1,11.619a2.07,2.07,0,0,0,1.4,2.46,2.014,2.014,0,0,0,2.46-1.4c.546-3.986.85-7.979,1.181-11.986.357-4.312,1.173-8.568,1.5-12.881.63-8.354-.773-16.646-1.508-24.946a2.053,2.053,0,0,0-2-2,2.016,2.016,0,0,0-2,2Z"/><path class="c" d="M151.442,390.46c4.744-5.448,2.733-14.181,1.592-20.539q-.561-3.129-1.15-6.254c-.2-1.059-.438-2.116-.609-3.18a1.7,1.7,0,0,1,.326-1.5c.147-.139-.211.035.036-.071a2.683,2.683,0,0,1,.739-.043c.687-.032,1.375-.045,2.063-.055,1.778-.027,3.556-.025,5.334-.03,3.371-.01,6.758.03,10.122-.206,2.784-.195,5.563-.448,8.349-.614a10.762,10.762,0,0,1,2.822-.034c.222.05.219.047.3.123l.271.4a2.842,2.842,0,0,1,.5,1.75c.1,1.875-.084,3.752-.145,5.625-.067,2.049-.05,4.1-.026,6.148.066,5.437-.2,11.006.463,16.417a2.063,2.063,0,0,0,2,2,2.012,2.012,0,0,0,2-2c-.59-4.851-.392-9.822-.442-14.7-.023-2.188-.066-4.375-.028-6.563.037-2.068.242-4.137.2-6.206-.067-3.49-1.537-6.793-5.406-7.029a58.079,58.079,0,0,0-7.9.459c-3.093.239-6.161.377-9.265.407-3.734.037-7.481-.066-11.212.107a4.738,4.738,0,0,0-4.191,2.036c-1.181,1.79-.971,3.581-.587,5.576q.733,3.813,1.423,7.634a71.184,71.184,0,0,1,1.182,7.138c.244,3.208.7,7.751-1.589,10.378-1.684,1.933,1.134,4.774,2.828,2.828Z"/><path class="c" d="M167.524,137.872a16.229,16.229,0,0,0,1.712,6.642c1.2,2.631,3.513,4.142,5.625,6.01,1.265,1.119,2.526,2.249,3.734,3.429a8.956,8.956,0,0,1,2.658,3.777c.792,2.821-2.237,4.616-4.638,3.347-2.274-1.2-4.3,2.249-2.019,3.454a7.43,7.43,0,0,0,9.611-2.034c2.463-3.432.693-7.631-1.854-10.419a57.864,57.864,0,0,0-4.315-4.073c-1.383-1.232-3.05-2.346-4.3-3.707a11.133,11.133,0,0,1-2.215-6.426c.027-2.575-3.973-2.577-4,0Z"/><path class="d" d="M131.092,150.748l1.375-3.094a24.98,24.98,0,0,1-6.053-2.224q-7.909,17.8-15.823,35.608a20.725,20.725,0,0,1,4.622.8c.534.174,1.635.526,1.635.526l.167.055Q124.053,166.586,131.092,150.748Z"/><path class="c" d="M119.477,181.779,133.9,149.322a2.063,2.063,0,0,0-.718-2.736,2.014,2.014,0,0,0-2.736.717L116.023,179.76a2.063,2.063,0,0,0,.718,2.737,2.015,2.015,0,0,0,2.736-.718Z"/><path class="c" d="M112.437,181.779l15.382-34.614a2.062,2.062,0,0,0-.718-2.736,2.014,2.014,0,0,0-2.736.717L108.983,179.76a2.064,2.064,0,0,0,.717,2.737,2.016,2.016,0,0,0,2.737-.718Z"/><path class="c" d="M112.151,111.342a58.1,58.1,0,0,0,.441,17.263,27.32,27.32,0,0,0,7.866,14.958c8.1,7.741,21.428,8.943,31.52,4.745,5.174-2.151,10.52-5.66,13.939-10.159a2.013,2.013,0,0,0-.718-2.737,2.05,2.05,0,0,0-2.736.718c-2.56,3.369-6.762,5.951-10.488,7.81a28.139,28.139,0,0,1-15.237,2.507,22.112,22.112,0,0,1-12.5-4.854,23.252,23.252,0,0,1-7.552-12.869,45.229,45.229,0,0,1-.846-8.357,57.755,57.755,0,0,1,.312-9.025,2.01,2.01,0,0,0-2-2,2.051,2.051,0,0,0-2,2Z"/><path class="c" d="M182.509,389.453c.1,2.389.539,5.17-.43,7.441-.9,2.109-3.658,3.313-5.586,4.255-2.4,1.174-5.04,1.722-7.261,3.27A63.041,63.041,0,0,0,163.02,410a22.229,22.229,0,0,1-17.338,5.27c-2.773-.333-5.8-1.256-7.59-3.539-1.777-2.262-1.416-5.012-.029-7.366,1.741-2.955,4.651-5.261,7.069-7.648,2.108-2.081,4.225-4.154,6.31-6.258,1.814-1.83-1.013-4.66-2.828-2.828-2.086,2.1-4.2,4.176-6.311,6.257-2.588,2.556-5.534,5.011-7.485,8.117-1.794,2.854-2.617,6.418-1.322,9.635a11.922,11.922,0,0,0,7.114,6.511c6.737,2.559,14.912,1.2,21.081-2.237,2.987-1.662,5.226-4.211,7.7-6.5a15.654,15.654,0,0,1,3.448-2.5c1.372-.707,2.914-1.076,4.332-1.693,2.908-1.266,6.5-3,8.132-5.868,1.705-2.993,1.336-6.6,1.2-9.9-.106-2.564-4.106-2.578-4,0Z"/><path class="c" d="M137.866,396.258c-4.459,1.438-7.161,4.789-10.565,7.764a20.848,20.848,0,0,1-13.4,4.723c-3.973.015-10.107-1.117-10.933-5.891-.815-4.711,4.526-8.618,7.512-11.381a130.557,130.557,0,0,0,9.966-9.543c1.687-1.932-1.131-4.772-2.829-2.829a127.123,127.123,0,0,1-9.81,9.4c-3.885,3.59-8.734,7.578-8.9,13.325-.165,5.708,5.05,9.461,10.141,10.454A26.194,26.194,0,0,0,125.435,410a27.094,27.094,0,0,0,7.053-5.385c1.922-1.888,3.826-3.654,6.442-4.5,2.44-.787,1.4-4.65-1.064-3.857Z"/><path class="c" d="M114.528,112.06c8.7-2.84,16.523-7.789,24.807-11.593L136.6,97.73a26.909,26.909,0,0,0-2.847,5.746,2.949,2.949,0,0,0,.442,2.966c.786.818,2.117.786,3.178.761,5.735-.137,11.264-3.1,15.555-6.722,1.97-1.662-.872-4.479-2.828-2.828-3.8,3.206-9.212,6.079-14.347,5.476l1.01.273a1.412,1.412,0,0,1,.747,1.518l.043-.183a4.569,4.569,0,0,0,.209-.634,14.6,14.6,0,0,1,.622-1.33c.521-1.027,1.091-2.029,1.67-3.024,1.078-1.851-1.007-3.531-2.736-2.736-7.965,3.657-15.484,8.461-23.851,11.19-2.437.8-1.394,4.659,1.063,3.857Z"/><path class="c" d="M149.583,99.6c.805,4.975,3.725,9.573,7.057,13.252a64.535,64.535,0,0,0,4.74,4.512c1.414,1.273,2.848,2.531,4.332,3.722a2.061,2.061,0,0,0,2.828,0,2.014,2.014,0,0,0,0-2.829,85.758,85.758,0,0,1-8.591-7.715c-3.13-3.306-5.771-7.448-6.509-12a2.014,2.014,0,0,0-2.46-1.4,2.049,2.049,0,0,0-1.4,2.46Z"/><path class="c" d="M179.274,105.132c7.39.908,13.136,8,11.365,15.475-.907,3.822-3.015,7.186-3.515,11.122a17.8,17.8,0,0,0,1.883,10.772l1.727-3.009a15.364,15.364,0,0,1-12.942-10.162c-.749-2.455-4.611-1.409-3.857,1.063,2.179,7.143,9.423,12.644,16.8,13.1a2.018,2.018,0,0,0,1.727-3.01,14.265,14.265,0,0,1-.83-10.861c1.276-4.151,3.527-7.858,3.343-12.359a17.075,17.075,0,0,0-4.827-11.033,17.872,17.872,0,0,0-10.873-5.1,2.01,2.01,0,0,0-2,2,2.05,2.05,0,0,0,2,2Z"/><path class="d" d="M114.579,181.494c.461.1.92.219,1.374.349.535.174,1.636.526,1.636.526,1.9.607,3.262,1.554,3.645,3.248a3.8,3.8,0,0,1-1.887,4.143c1.8.518,2.785,1.725,2.525,3.39s-1.467,3.246-3.023,3.255a3.041,3.041,0,0,1,.716,3.342c-.432,1-1.735,2.514-3.032,2.367,1.156.741.667,2.795-.511,3.842s-2.933.889-4.478.582-4.23-1.159-5.42-1.028l-.614.068c-2.5,1.585-5.51,1.255-8.264.087-1.995-.846-.014-11.431.66-13.42,1.451-4.278,2.747-7.042,6.489-9.5C107.406,180.758,111.053,180.707,114.579,181.494Z"/><path class="c" d="M104.688,203.735a6.6,6.6,0,0,1-5.939.372c-.776-.264-.427-.365-.336-.03.143.528.231.2.111.12.149.1.114.355.043.094a3.137,3.137,0,0,1-.177-1.23,33.665,33.665,0,0,1,.89-8.033,20.322,20.322,0,0,1,3.084-7.723,10.393,10.393,0,0,1,10-4.184,19.351,19.351,0,0,1,5.379,1.421c1.573.7,2.236,2.4.595,3.491a2.027,2.027,0,0,0,.477,3.655c.618.2,1.135.429,1.092,1.135-.03.5-.471,1.537-1.058,1.582-1.561.122-2.85,2.2-1.415,3.414.756.639.05,2.312-.9,2.3-1.6-.029-2.819,2.308-1.415,3.414.32.251.048.141.076-.048-.013.088.03.071-.039.205a1.91,1.91,0,0,1-.547.856c-.71.481-1.9.2-2.666.041-1.886-.393-3.866-1.191-5.818-1.072-2.557.157-2.575,4.158,0,4a14.335,14.335,0,0,1,4.033.765,10.923,10.923,0,0,0,5,.3c3.045-.711,5.827-5.489,2.792-7.878l-1.414,3.414c4.267.076,7.173-6.211,3.73-9.123l-1.414,3.414a5.613,5.613,0,0,0,5.023-5.255c.273-2.683-1.589-4.543-3.993-5.319l.477,3.656a5.908,5.908,0,0,0,2.618-7c-.871-2.333-2.988-3.439-5.23-4.164-5.375-1.739-11.019-1.981-15.674,1.647-3.385,2.638-5.389,6.7-6.386,10.816a36.159,36.159,0,0,0-1.279,10.6c.138,2.034.684,3.59,2.7,4.366a10.622,10.622,0,0,0,9.606-.563c2.168-1.375.163-4.838-2.019-3.454Z"/><path class="c" d="M119.879,187.831a36.1,36.1,0,0,0-3.7-1.1,15.909,15.909,0,0,0-4.214-.619,2,2,0,1,0,0,4,6.493,6.493,0,0,1,.764.022,1.849,1.849,0,0,1,.435.046c-.007-.017-.592-.087-.21-.028l.237.037c.682.111,1.358.259,2.028.424a36.226,36.226,0,0,1,3.6,1.074,2.011,2.011,0,0,0,2.461-1.4,2.052,2.052,0,0,0-1.4-2.46Z"/><path class="c" d="M119.3,194.658a31.143,31.143,0,0,0-4.4-1.559,16.5,16.5,0,0,0-4.347-.673,2,2,0,0,0,0,4c.271,0,.543.009.813.032.14.012.278.029.417.044.234.025-.552-.084-.153-.019l.221.035c.669.111,1.331.263,1.985.438s1.309.375,1.952.6c.318.11.634.224.948.345.159.061.316.123.474.187.066.027.32.134.013,0-.333-.142,0,0,.053.024a2.189,2.189,0,0,0,1.541.2,2.046,2.046,0,0,0,1.2-.919,2.024,2.024,0,0,0-.718-2.737Z"/><path class="c" d="M116.447,199.692a23.355,23.355,0,0,0-6.589-1.384,2,2,0,0,0,0,4,8.4,8.4,0,0,1,1.11.075l-.531-.072a33.256,33.256,0,0,1,4.946,1.239,2,2,0,0,0,1.064-3.858Z"/><path class="c" d="M135.562,122.811a19.908,19.908,0,0,0-.819,2.048,8,8,0,0,0-.268.9,4.366,4.366,0,0,0-.118.833,2.094,2.094,0,0,0,.454,1.356,2.694,2.694,0,0,0,.806.7,4.478,4.478,0,0,0,.607.265,1.136,1.136,0,0,0,.162.053,5.871,5.871,0,0,0,1.07.106,2,2,0,0,0,1.414-3.414,2.181,2.181,0,0,0-1.414-.586c-.142-.008-.283,0-.425-.014l.532.072a1.19,1.19,0,0,1-.275-.074l.477.2a1.55,1.55,0,0,1-.314-.191l.4.313a.428.428,0,0,1-.059-.053l.313.405-.009-.016.2.478a.2.2,0,0,1-.014-.054l.071.531a.859.859,0,0,1,.006-.168l-.071.532a6.052,6.052,0,0,1,.33-1.171q.216-.618.47-1.222l-.2.478c.039-.094.079-.188.123-.28a1.486,1.486,0,0,0,.237-.743,1.515,1.515,0,0,0-.035-.8,2,2,0,0,0-2.46-1.4,1.973,1.973,0,0,0-1.2.919Z"/><path class="c" d="M123.918,116.1c-.52,1.4-.466,4.716,2.123,5.166,3.449.2,3.9-3.768,2.867-5.716C128.061,113.953,125.31,113.133,123.918,116.1Z"/><path class="c" d="M152.521,117.988c.346,1.461-.16,4.736-2.891,4.837-3.584-.259-3.511-4.254-2.18-6.047C148.539,115.311,151.487,114.866,152.521,117.988Z"/><path class="c" d="M132.5,137.263a10.361,10.361,0,0,0,10.59-.831,2.185,2.185,0,0,0,.919-1.2,2.048,2.048,0,0,0-.2-1.541,2.021,2.021,0,0,0-2.737-.717,8.218,8.218,0,0,1-.875.578q-.228.129-.465.243a1.706,1.706,0,0,0-.238.109c.082-.057.367-.143.115-.051a9.741,9.741,0,0,1-1,.315c-.17.043-.342.079-.514.111a2.256,2.256,0,0,0-.259.043c.177-.055.394-.046.076-.015a8.563,8.563,0,0,1-1.05.037c-.175,0-.35-.014-.524-.03-.066-.006-.373-.048-.06,0s.005,0-.059-.012a8.1,8.1,0,0,1-1.019-.24c-.167-.051-.333-.108-.5-.17-.057-.022-.345-.134-.065-.024.309.122-.086-.047-.119-.063a2,2,0,0,0-2.019,3.454Z"/><path class="d" d="M71.468,62.426a80.2,80.2,0,0,0-12.217,3.638,165.324,165.324,0,0,0,62.83,16.393c11.58,10.03,55.358,28.844,77.623,31.172,12.286,15.069,27.429,30.54,41.365,44.413-.371-13.481-10.225-40.936-12.074-44.815-2.251-4.719-14.471-19.8-23.656-27.507-5.669-4.755-24.886-15.192-31.33-17.636,0,0-.824-.312-1.909-.726-8.811-3.947-31.465-8.619-40.983-8.972-18-.666-38.015.426-41.456.693A148.635,148.635,0,0,0,71.468,62.426Z"/><path class="c" d="M192.453,159.2a85.046,85.046,0,0,1,17.243,2.119c5.95,1.255,12.172,2.791,16.339,7.559,1.091,1.249,2.832.392,3.342-.883a14.9,14.9,0,0,1,3.822-6.081,9.051,9.051,0,0,1,5.8-2.385c2.566-.1,2.578-4.1,0-4a13.34,13.34,0,0,0-8.364,3.331c-2.591,2.2-3.872,4.982-5.111,8.072l3.343-.883c-4.5-5.151-11.192-7.105-17.646-8.49a91.377,91.377,0,0,0-18.764-2.359c-2.574-.008-2.578,3.992,0,4Z"/><path class="c" d="M58.008,67.921A48.875,48.875,0,0,1,61.233,96.4a2.044,2.044,0,0,0,1.4,2.461A53.216,53.216,0,0,1,84.1,109.942a77.736,77.736,0,0,1,15.224,17.632c.562.906,1.1,1.827,1.6,2.769a11.094,11.094,0,0,0,1.393,2.615c.766.766,2.2.7,3.208.954a10.621,10.621,0,0,1,2.92,1.232c2.215,1.324,4.228-2.133,2.019-3.454a16.719,16.719,0,0,0-6.2-2.075l1.195.919c-2.934-6.513-7.6-12.324-12.441-17.516A63.281,63.281,0,0,0,76.158,99.784,58.407,58.407,0,0,0,63.694,95l1.4,2.46A53.63,53.63,0,0,0,61.462,65.9a2.014,2.014,0,0,0-2.736-.717,2.05,2.05,0,0,0-.718,2.736Z"/><path class="c" d="M242.483,156.628c-12.023-11.972-23.94-24.082-35.053-36.912q-2.1-2.425-4.157-4.889c-.625-.749-1.218-1.539-1.87-2.264A3.219,3.219,0,0,0,199,111.551c-2.112-.248-4.481-.685-6.691-1.156a160.109,160.109,0,0,1-16.372-4.527,261.417,261.417,0,0,1-33.741-13.71,145.1,145.1,0,0,1-13.207-7.211c-.846-.53-1.683-1.074-2.5-1.64q-.543-.372-1.075-.758c-.182-.132-.362-.266-.542-.4-.075-.056-.15-.112-.224-.169-.254-.193.216.171-.028-.021-.294-.23-.581-.468-.869-.7a3.835,3.835,0,0,0-2.575-.853q-3.2-.2-6.381-.525a162.51,162.51,0,0,1-47.7-12.4q-2.835-1.224-5.621-2.553c-2.313-1.1-4.345,2.348-2.019,3.454A167.8,167.8,0,0,0,107.675,83q7.172,1.026,14.406,1.458l-1.415-.586a64.429,64.429,0,0,0,10.392,6.96c4.94,2.8,10.043,5.3,15.206,7.66a256.38,256.38,0,0,0,35.79,13.442,104.855,104.855,0,0,0,17.65,3.7l-1.414-.585c9.975,12.216,20.84,23.683,31.9,34.912q4.706,4.775,9.462,9.5c1.826,1.819,4.655-1.008,2.828-2.828Z"/><path class="c" d="M60.341,67.748a71.377,71.377,0,0,1,9.887-2.963q6.228-1.546,12.548-2.7a123.9,123.9,0,0,1,17.644-1.551c10.48-.4,21.073-.711,31.55-.106,8.059.466,16.14,2.2,23.973,4.066,3.935.937,7.862,1.97,11.693,3.278,2.831.967,5.595,2.065,8.016,3.163a196.141,196.141,0,0,1,20.654,11.084c1.554.944,3.1,1.909,4.6,2.924.584.392,1.164.792,1.734,1.205.659.478.737.536,1.28.987a100.679,100.679,0,0,1,9.715,9.507c3.031,3.306,5.952,6.727,8.691,10.28a42.847,42.847,0,0,1,4.937,7.316c.061.128.116.258.176.387.166.354.075.17.035.073q.271.657.532,1.318c.468,1.193.914,2.4,1.351,3.6q1.81,5,3.4,10.072a147.2,147.2,0,0,1,5.906,23.8,42.793,42.793,0,0,1,.4,4.55c.08,2.568,4.08,2.579,4,0-.248-7.92-2.444-15.853-4.63-23.421-1.938-6.708-4.088-13.4-6.659-19.892-2.276-5.75-6.434-10.586-10.369-15.278-5.365-6.4-11.131-12.953-18.071-17.686a183.981,183.981,0,0,0-20.992-12.033A105.773,105.773,0,0,0,163.469,62.3a184.768,184.768,0,0,0-25.954-5.319c-9.775-1.279-19.816-.909-29.649-.679-6.788.158-13.732.137-20.479,1.022a155.434,155.434,0,0,0-23.9,5.13c-1.42.423-2.836.871-4.208,1.433a2.066,2.066,0,0,0-1.4,2.461,2.013,2.013,0,0,0,2.46,1.4Z"/><path class="c" d="M174.362,60.76a18.221,18.221,0,0,0-3.485,6.083,2,2,0,0,0,3.857,1.063q.188-.546.412-1.078l-.2.478a15.9,15.9,0,0,1,2.018-3.464l-.313.4c.175-.224.355-.443.542-.657a2.128,2.128,0,0,0,.586-1.415,2,2,0,0,0-2-2,1.989,1.989,0,0,0-1.415.586Z"/></svg>